<svg id="visual" viewBox="0 0 900 300" width="900" height="300" xmlns="http://www.w3.org/2000/svg" xmlns:xlink="http://www.w3.org/1999/xlink" version="1.1"><rect x="0" y="0" width="900" height="300" fill="#001220"></rect><path d="M0 109L16.7 112.2C33.3 115.3 66.7 121.7 100 118.5C133.3 115.3 166.7 102.7 200 96.7C233.3 90.7 266.7 91.3 300 96.5C333.3 101.7 366.7 111.3 400 112.2C433.3 113 466.7 105 500 106C533.3 107 566.7 117 600 117.5C633.3 118 666.7 109 700 103.2C733.3 97.3 766.7 94.7 800 97.2C833.3 99.7 866.7 107.3 883.3 111.2L900 115L900 0L883.3 0C866.7 0 833.3 0 800 0C766.7 0 733.3 0 700 0C666.7 0 633.3 0 600 0C566.7 0 533.3 0 500 0C466.7 0 433.3 0 400 0C366.7 0 333.3 0 300 0C266.7 0 233.3 0 200 0C166.7 0 133.3 0 100 0C66.7 0 33.3 0 16.7 0L0 0Z" fill="#c62368"></path><path d="M0 92L16.7 90.8C33.3 89.7 66.7 87.3 100 87.7C133.3 88 166.7 91 200 92.7C233.3 94.3 266.7 94.7 300 92.5C333.3 90.3 366.7 85.7 400 87.3C433.3 89 466.7 97 500 95.3C533.3 93.7 566.7 82.3 600 82.2C633.3 82 666.7 93 700 94C733.3 95 766.7 86 800 85.8C833.3 85.7 866.7 94.3 883.3 98.7L900 103L900 0L883.3 0C866.7 0 833.3 0 800 0C766.7 0 733.3 0 700 0C666.7 0 633.3 0 600 0C566.7 0 533.3 0 500 0C466.7 0 433.3 0 400 0C366.7 0 333.3 0 300 0C266.7 0 233.3 0 200 0C166.7 0 133.3 0 100 0C66.7 0 33.3 0 16.7 0L0 0Z" fill="#d53867"></path><path d="M0 75L16.7 73.3C33.3 71.7 66.7 68.3 100 66C133.3 63.7 166.7 62.3 200 62.7C233.3 63 266.7 65 300 64.5C333.3 64 366.7 61 400 60.2C433.3 59.3 466.7 60.7 500 63.8C533.3 67 566.7 72 600 71.5C633.3 71 666.7 65 700 62.8C733.3 60.7 766.7 62.3 800 61.3C833.3 60.3 866.7 56.7 883.3 54.8L900 53L900 0L883.3 0C866.7 0 833.3 0 800 0C766.7 0 733.3 0 700 0C666.7 0 633.3 0 600 0C566.7 0 533.3 0 500 0C466.7 0 433.3 0 400 0C366.7 0 333.3 0 300 0C266.7 0 233.3 0 200 0C166.7 0 133.3 0 100 0C66.7 0 33.3 0 16.7 0L0 0Z" fill="#e34c67"></path><path d="M0 40L16.7 40.8C33.3 41.7 66.7 43.3 100 44.3C133.3 45.3 166.7 45.7 200 46.2C233.3 46.7 266.7 47.3 300 49.2C333.3 51 366.7 54 400 55.2C433.3 56.3 466.7 55.7 500 53.3C533.3 51 566.7 47 600 46.2C633.3 45.3 666.7 47.7 700 48.8C733.3 50 766.7 50 800 48.5C833.3 47 866.7 44 883.3 42.5L900 41L900 0L883.3 0C866.7 0 833.3 0 800 0C766.7 0 733.3 0 700 0C666.7 0 633.3 0 600 0C566.7 0 533.3 0 500 0C466.7 0 433.3 0 400 0C366.7 0 333.3 0 300 0C266.7 0 233.3 0 200 0C166.7 0 133.3 0 100 0C66.7 0 33.3 0 16.7 0L0 0Z" fill="#ef5f67"></path><path d="M0 25L16.7 25.2C33.3 25.3 66.7 25.7 100 27C133.3 28.3 166.7 30.7 200 30C233.3 29.3 266.7 25.7 300 25.5C333.3 25.3 366.7 28.7 400 28.7C433.3 28.7 466.7 25.3 500 26C533.3 26.7 566.7 31.3 600 31C633.3 30.7 666.7 25.3 700 24C733.3 22.7 766.7 25.3 800 27.3C833.3 29.3 866.7 30.7 883.3 31.3L900 32L900 0L883.3 0C866.7 0 833.3 0 800 0C766.7 0 733.3 0 700 0C666.7 0 633.3 0 600 0C566.7 0 533.3 0 500 0C466.7 0 433.3 0 400 0C366.7 0 333.3 0 300 0C266.7 0 233.3 0 200 0C166.7 0 133.3 0 100 0C66.7 0 33.3 0 16.7 0L0 0Z" fill="#fa7268"></path></svg>